# xmcd CD database file
#
# Track frame offsets:
#	150
#	18624
#	34777
#	56905
#	75491
#	95010
#	110212
#	122621
#	142411
#	162823
#	185742
#	199216
#
# Disc length: 2947 seconds
#
# Revision: 0
# Processed by: cddbd v1.5.1PL2 Copyright (c) Steve Scherf et al.
# Submitted via: CDex 1.51
#
DISCID=b30b810c
DTITLE=Richie Loidl - Highlight Time
DYEAR=2006
DGENRE=Jazz
TTITLE0=Lets Have a Good Time
TTITLE1=Whole Lotta Boogie Goin'On
TTITLE2=How Long Blues
TTITLE3=Pinetops's Boogie
TTITLE4=Suitcase Blues
TTITLE5=Chicago Breakdown
TTITLE6=Hardtop Special
TTITLE7=Sheik of Araby
TTITLE8=Godd Morning Piano
TTITLE9=Hi Heel Sneakers
TTITLE10=Blue Suede Shoes
TTITLE11=Boogie-Girl from Ipanema
EXTD=YEAR: 2006
EXTT0=
EXTT1=
EXTT2=
EXTT3=
EXTT4=
EXTT5=
EXTT6=
EXTT7=
EXTT8=
EXTT9=
EXTT10=
EXTT11=
PLAYORDER=
